<mxfile host="65bd71144e">
    <diagram id="rCXVtfarYAIZyLfnzVE2" name="Page-1">
        <mxGraphModel dx="1777" dy="1113" grid="1" gridSize="10" guides="1" tooltips="1" connect="1" arrows="1" fold="1" page="1" pageScale="1" pageWidth="850" pageHeight="1100" math="0" shadow="0">
            <root>
                <mxCell id="0"/>
                <mxCell id="1" parent="0"/>
                <mxCell id="3" value="" style="rounded=0;whiteSpace=wrap;html=1;" vertex="1" parent="1">
                    <mxGeometry width="850" height="140" as="geometry"/>
                </mxCell>
                <mxCell id="4" value="" style="rounded=0;whiteSpace=wrap;html=1;fillColor=#000033;fontColor=#ffffff;strokeColor=#001DBC;" vertex="1" parent="1">
                    <mxGeometry width="170" height="140" as="geometry"/>
                </mxCell>
                <mxCell id="5" value="&lt;font style=&quot;font-size: 15px;&quot;&gt;OPC1&lt;/font&gt;" style="rounded=0;whiteSpace=wrap;html=1;fillColor=#000066;fontColor=#ffffff;strokeColor=#006EAF;" vertex="1" parent="1">
                    <mxGeometry x="170" y="70" width="170" height="70" as="geometry"/>
                </mxCell>
                <mxCell id="6" value="&lt;font style=&quot;font-size: 15px;&quot;&gt;OPC2&lt;/font&gt;" style="rounded=0;whiteSpace=wrap;html=1;fillColor=#000099;" vertex="1" parent="1">
                    <mxGeometry x="340" y="70" width="170" height="70" as="geometry"/>
                </mxCell>
                <mxCell id="7" value="&lt;font style=&quot;font-size: 15px;&quot;&gt;OPC3&lt;/font&gt;" style="rounded=0;whiteSpace=wrap;html=1;fillColor=#0000CC;" vertex="1" parent="1">
                    <mxGeometry x="510" y="70" width="170" height="70" as="geometry"/>
                </mxCell>
                <mxCell id="10" value="&lt;font style=&quot;font-size: 15px;&quot;&gt;OPC3&lt;/font&gt;" style="rounded=0;whiteSpace=wrap;html=1;fillColor=#0000FF;" vertex="1" parent="1">
                    <mxGeometry x="680" y="70" width="170" height="70" as="geometry"/>
                </mxCell>
                <mxCell id="20" value="" style="rounded=0;whiteSpace=wrap;html=1;fontSize=26;fillColor=#9999FF;" vertex="1" parent="1">
                    <mxGeometry y="140" width="850" height="880" as="geometry"/>
                </mxCell>
                <mxCell id="13" value="" style="rounded=0;whiteSpace=wrap;html=1;fontSize=15;" vertex="1" parent="1">
                    <mxGeometry y="1020" width="850" height="80" as="geometry"/>
                </mxCell>
                <mxCell id="14" value="&lt;font style=&quot;font-size: 15px;&quot;&gt;OPC2&lt;/font&gt;" style="rounded=0;whiteSpace=wrap;html=1;fillColor=#0000CC;" vertex="1" parent="1">
                    <mxGeometry y="1020" width="170" height="80" as="geometry"/>
                </mxCell>
                <mxCell id="15" value="&lt;font style=&quot;font-size: 15px;&quot;&gt;OPC2&lt;/font&gt;" style="rounded=0;whiteSpace=wrap;html=1;fillColor=#6666FF;" vertex="1" parent="1">
                    <mxGeometry x="171" y="1020" width="169" height="80" as="geometry"/>
                </mxCell>
                <mxCell id="16" value="&lt;font style=&quot;font-size: 15px;&quot;&gt;OPC2&lt;/font&gt;" style="rounded=0;whiteSpace=wrap;html=1;fillColor=#3333FF;" vertex="1" parent="1">
                    <mxGeometry x="341" y="1020" width="170" height="80" as="geometry"/>
                </mxCell>
                <mxCell id="17" value="&lt;font style=&quot;font-size: 15px;&quot;&gt;OPC2&lt;/font&gt;" style="rounded=0;whiteSpace=wrap;html=1;fillColor=#0000FF;" vertex="1" parent="1">
                    <mxGeometry x="512" y="1020" width="170" height="80" as="geometry"/>
                </mxCell>
                <mxCell id="18" value="&lt;font style=&quot;font-size: 15px;&quot;&gt;OPC2&lt;/font&gt;" style="rounded=0;whiteSpace=wrap;html=1;fillColor=#0000CC;" vertex="1" parent="1">
                    <mxGeometry x="680" y="1020" width="170" height="80" as="geometry"/>
                </mxCell>
                <mxCell id="19" value="&lt;font style=&quot;font-size: 26px;&quot;&gt;LOGO&lt;/font&gt;" style="ellipse;whiteSpace=wrap;html=1;fontSize=15;fillColor=#6666FF;" vertex="1" parent="1">
                    <mxGeometry x="25" y="30" width="120" height="80" as="geometry"/>
                </mxCell>
                <mxCell id="28" value="&lt;b&gt;&lt;font style=&quot;font-size: 20px&quot;&gt;Card title&lt;/font&gt;&lt;/b&gt;&lt;br style=&quot;font-size: 14px&quot;&gt;&lt;br style=&quot;font-size: 14px&quot;&gt;Some quick example text to build on the card title and make up the bulk of the card's content." style="html=1;shadow=0;dashed=0;shape=mxgraph.bootstrap.rrect;rSize=5;strokeColor=#DFDFDF;html=1;whiteSpace=wrap;fillColor=#ffffff;fontColor=#000000;verticalAlign=bottom;align=left;spacing=20;spacingBottom=50;fontSize=14;" vertex="1" parent="1">
                    <mxGeometry x="11" y="193" width="270" height="310" as="geometry"/>
                </mxCell>
                <mxCell id="29" value="Image cap" style="html=1;shadow=0;dashed=0;shape=mxgraph.bootstrap.topButton;rSize=5;perimeter=none;whiteSpace=wrap;fillColor=#868E96;strokeColor=#DFDFDF;fontColor=#DEE2E6;resizeWidth=1;fontSize=18;" vertex="1" parent="28">
                    <mxGeometry width="270" height="180" relative="1" as="geometry"/>
                </mxCell>
                <mxCell id="30" value="Go somewhere" style="html=1;shadow=0;dashed=0;shape=mxgraph.bootstrap.rrect;rSize=5;perimeter=none;whiteSpace=wrap;fillColor=#0085FC;strokeColor=none;fontColor=#ffffff;resizeWidth=1;fontSize=14;" vertex="1" parent="28">
                    <mxGeometry y="1" width="129.60000000000002" height="40" relative="1" as="geometry">
                        <mxPoint x="20" y="-60" as="offset"/>
                    </mxGeometry>
                </mxCell>
                <mxCell id="31" value="&lt;b&gt;&lt;font style=&quot;font-size: 20px&quot;&gt;Card title&lt;/font&gt;&lt;/b&gt;&lt;br style=&quot;font-size: 14px&quot;&gt;&lt;br style=&quot;font-size: 14px&quot;&gt;Some quick example text to build on the card title and make up the bulk of the card's content." style="html=1;shadow=0;dashed=0;shape=mxgraph.bootstrap.rrect;rSize=5;strokeColor=#DFDFDF;html=1;whiteSpace=wrap;fillColor=#ffffff;fontColor=#000000;verticalAlign=bottom;align=left;spacing=20;spacingBottom=50;fontSize=14;" vertex="1" parent="1">
                    <mxGeometry x="290" y="195" width="270" height="310" as="geometry"/>
                </mxCell>
                <mxCell id="32" value="Image cap" style="html=1;shadow=0;dashed=0;shape=mxgraph.bootstrap.topButton;rSize=5;perimeter=none;whiteSpace=wrap;fillColor=#868E96;strokeColor=#DFDFDF;fontColor=#DEE2E6;resizeWidth=1;fontSize=18;" vertex="1" parent="31">
                    <mxGeometry width="270" height="180" relative="1" as="geometry"/>
                </mxCell>
                <mxCell id="33" value="Go somewhere" style="html=1;shadow=0;dashed=0;shape=mxgraph.bootstrap.rrect;rSize=5;perimeter=none;whiteSpace=wrap;fillColor=#0085FC;strokeColor=none;fontColor=#ffffff;resizeWidth=1;fontSize=14;" vertex="1" parent="31">
                    <mxGeometry y="1" width="129.60000000000002" height="40" relative="1" as="geometry">
                        <mxPoint x="20" y="-60" as="offset"/>
                    </mxGeometry>
                </mxCell>
                <mxCell id="34" value="&lt;b&gt;&lt;font style=&quot;font-size: 20px&quot;&gt;Card title&lt;/font&gt;&lt;/b&gt;&lt;br style=&quot;font-size: 14px&quot;&gt;&lt;br style=&quot;font-size: 14px&quot;&gt;Some quick example text to build on the card title and make up the bulk of the card's content." style="html=1;shadow=0;dashed=0;shape=mxgraph.bootstrap.rrect;rSize=5;strokeColor=#DFDFDF;html=1;whiteSpace=wrap;fillColor=#ffffff;fontColor=#000000;verticalAlign=bottom;align=left;spacing=20;spacingBottom=50;fontSize=14;" vertex="1" parent="1">
                    <mxGeometry x="570" y="196" width="270" height="310" as="geometry"/>
                </mxCell>
                <mxCell id="35" value="Image cap" style="html=1;shadow=0;dashed=0;shape=mxgraph.bootstrap.topButton;rSize=5;perimeter=none;whiteSpace=wrap;fillColor=#868E96;strokeColor=#DFDFDF;fontColor=#DEE2E6;resizeWidth=1;fontSize=18;" vertex="1" parent="34">
                    <mxGeometry width="270" height="180" relative="1" as="geometry"/>
                </mxCell>
                <mxCell id="36" value="Go somewhere" style="html=1;shadow=0;dashed=0;shape=mxgraph.bootstrap.rrect;rSize=5;perimeter=none;whiteSpace=wrap;fillColor=#0085FC;strokeColor=none;fontColor=#ffffff;resizeWidth=1;fontSize=14;" vertex="1" parent="34">
                    <mxGeometry y="1" width="129.60000000000002" height="40" relative="1" as="geometry">
                        <mxPoint x="20" y="-60" as="offset"/>
                    </mxGeometry>
                </mxCell>
                <mxCell id="42" value="" style="rounded=0;whiteSpace=wrap;html=1;fontSize=26;fillColor=#9999FF;" vertex="1" parent="1">
                    <mxGeometry x="170" width="680" height="70" as="geometry"/>
                </mxCell>
                <mxCell id="51" value="" style="html=1;shadow=0;dashed=0;shape=mxgraph.bootstrap.rrect;rSize=5;strokeColor=#DEE2E6;html=1;whiteSpace=wrap;fillColor=#ffffff;fontColor=#0085FC;fontSize=14;" vertex="1" parent="1">
                    <mxGeometry x="318" y="846" width="220" height="30" as="geometry"/>
                </mxCell>
                <mxCell id="52" value="Previous" style="strokeColor=inherit;fillColor=inherit;gradientColor=inherit;fontColor=inherit;html=1;shadow=0;dashed=0;shape=mxgraph.bootstrap.leftButton;rSize=5;perimeter=none;whiteSpace=wrap;resizeHeight=1;fontSize=14;" vertex="1" parent="51">
                    <mxGeometry width="70" height="30" relative="1" as="geometry"/>
                </mxCell>
                <mxCell id="53" value="1" style="strokeColor=inherit;fillColor=inherit;gradientColor=inherit;fontColor=inherit;html=1;shadow=0;dashed=0;perimeter=none;whiteSpace=wrap;resizeHeight=1;fontSize=14;" vertex="1" parent="51">
                    <mxGeometry width="30" height="30" relative="1" as="geometry">
                        <mxPoint x="70" as="offset"/>
                    </mxGeometry>
                </mxCell>
                <mxCell id="54" value="2" style="strokeColor=inherit;fillColor=inherit;gradientColor=inherit;fontColor=inherit;html=1;shadow=0;dashed=0;perimeter=none;whiteSpace=wrap;resizeHeight=1;fontSize=14;" vertex="1" parent="51">
                    <mxGeometry width="30" height="30" relative="1" as="geometry">
                        <mxPoint x="100" as="offset"/>
                    </mxGeometry>
                </mxCell>
                <mxCell id="55" value="3" style="strokeColor=inherit;fillColor=inherit;gradientColor=inherit;fontColor=inherit;html=1;shadow=0;dashed=0;perimeter=none;whiteSpace=wrap;resizeHeight=1;fontSize=14;" vertex="1" parent="51">
                    <mxGeometry width="30" height="30" relative="1" as="geometry">
                        <mxPoint x="130" as="offset"/>
                    </mxGeometry>
                </mxCell>
                <mxCell id="56" value="Next" style="strokeColor=inherit;fillColor=inherit;gradientColor=inherit;fontColor=inherit;html=1;shadow=0;dashed=0;shape=mxgraph.bootstrap.rightButton;rSize=5;perimeter=none;whiteSpace=wrap;resizeHeight=1;fontSize=14;" vertex="1" parent="51">
                    <mxGeometry x="1" width="60" height="30" relative="1" as="geometry">
                        <mxPoint x="-60" as="offset"/>
                    </mxGeometry>
                </mxCell>
                <mxCell id="107" value="" style="edgeStyle=none;html=1;fontSize=26;" edge="1" parent="1" target="19">
                    <mxGeometry relative="1" as="geometry">
                        <mxPoint x="173.99999999999977" y="55.2507830403556" as="sourcePoint"/>
                    </mxGeometry>
                </mxCell>
                <mxCell id="69" value="&lt;b&gt;&lt;font style=&quot;font-size: 20px&quot;&gt;Card title&lt;/font&gt;&lt;/b&gt;&lt;br style=&quot;font-size: 14px&quot;&gt;&lt;br style=&quot;font-size: 14px&quot;&gt;Some quick example text to build on the card title and make up the bulk of the card's content." style="html=1;shadow=0;dashed=0;shape=mxgraph.bootstrap.rrect;rSize=5;strokeColor=#DFDFDF;html=1;whiteSpace=wrap;fillColor=#ffffff;fontColor=#000000;verticalAlign=bottom;align=left;spacing=20;spacingBottom=50;fontSize=14;" vertex="1" parent="1">
                    <mxGeometry x="11" y="518" width="270" height="310" as="geometry"/>
                </mxCell>
                <mxCell id="70" value="Image cap" style="html=1;shadow=0;dashed=0;shape=mxgraph.bootstrap.topButton;rSize=5;perimeter=none;whiteSpace=wrap;fillColor=#868E96;strokeColor=#DFDFDF;fontColor=#DEE2E6;resizeWidth=1;fontSize=18;" vertex="1" parent="69">
                    <mxGeometry width="270" height="180" relative="1" as="geometry"/>
                </mxCell>
                <mxCell id="71" value="Go somewhere" style="html=1;shadow=0;dashed=0;shape=mxgraph.bootstrap.rrect;rSize=5;perimeter=none;whiteSpace=wrap;fillColor=#0085FC;strokeColor=none;fontColor=#ffffff;resizeWidth=1;fontSize=14;" vertex="1" parent="69">
                    <mxGeometry y="1" width="129.60000000000002" height="40" relative="1" as="geometry">
                        <mxPoint x="20" y="-60" as="offset"/>
                    </mxGeometry>
                </mxCell>
                <mxCell id="72" value="&lt;b&gt;&lt;font style=&quot;font-size: 20px&quot;&gt;Card title&lt;/font&gt;&lt;/b&gt;&lt;br style=&quot;font-size: 14px&quot;&gt;&lt;br style=&quot;font-size: 14px&quot;&gt;Some quick example text to build on the card title and make up the bulk of the card's content." style="html=1;shadow=0;dashed=0;shape=mxgraph.bootstrap.rrect;rSize=5;strokeColor=#DFDFDF;html=1;whiteSpace=wrap;fillColor=#ffffff;fontColor=#000000;verticalAlign=bottom;align=left;spacing=20;spacingBottom=50;fontSize=14;" vertex="1" parent="1">
                    <mxGeometry x="291" y="519" width="270" height="310" as="geometry"/>
                </mxCell>
                <mxCell id="73" value="Image cap" style="html=1;shadow=0;dashed=0;shape=mxgraph.bootstrap.topButton;rSize=5;perimeter=none;whiteSpace=wrap;fillColor=#868E96;strokeColor=#DFDFDF;fontColor=#DEE2E6;resizeWidth=1;fontSize=18;" vertex="1" parent="72">
                    <mxGeometry width="270" height="180" relative="1" as="geometry">
                        <mxPoint x="-2" as="offset"/>
                    </mxGeometry>
                </mxCell>
                <mxCell id="74" value="Go somewhere" style="html=1;shadow=0;dashed=0;shape=mxgraph.bootstrap.rrect;rSize=5;perimeter=none;whiteSpace=wrap;fillColor=#0085FC;strokeColor=none;fontColor=#ffffff;resizeWidth=1;fontSize=14;" vertex="1" parent="72">
                    <mxGeometry y="1" width="129.60000000000002" height="40" relative="1" as="geometry">
                        <mxPoint x="20" y="-60" as="offset"/>
                    </mxGeometry>
                </mxCell>
                <mxCell id="75" value="&lt;b&gt;&lt;font style=&quot;font-size: 20px&quot;&gt;Card title&lt;/font&gt;&lt;/b&gt;&lt;br style=&quot;font-size: 14px&quot;&gt;&lt;br style=&quot;font-size: 14px&quot;&gt;Some quick example text to build on the card title and make up the bulk of the card's content." style="html=1;shadow=0;dashed=0;shape=mxgraph.bootstrap.rrect;rSize=5;strokeColor=#DFDFDF;html=1;whiteSpace=wrap;fillColor=#ffffff;fontColor=#000000;verticalAlign=bottom;align=left;spacing=20;spacingBottom=50;fontSize=14;" vertex="1" parent="1">
                    <mxGeometry x="570" y="521" width="270" height="310" as="geometry"/>
                </mxCell>
                <mxCell id="76" value="Image cap" style="html=1;shadow=0;dashed=0;shape=mxgraph.bootstrap.topButton;rSize=5;perimeter=none;whiteSpace=wrap;fillColor=#868E96;strokeColor=#DFDFDF;fontColor=#DEE2E6;resizeWidth=1;fontSize=18;" vertex="1" parent="75">
                    <mxGeometry width="270" height="180" relative="1" as="geometry"/>
                </mxCell>
                <mxCell id="77" value="Go somewhere" style="html=1;shadow=0;dashed=0;shape=mxgraph.bootstrap.rrect;rSize=5;perimeter=none;whiteSpace=wrap;fillColor=#0085FC;strokeColor=none;fontColor=#ffffff;resizeWidth=1;fontSize=14;" vertex="1" parent="75">
                    <mxGeometry y="1" width="129.60000000000002" height="40" relative="1" as="geometry">
                        <mxPoint x="20" y="-60" as="offset"/>
                    </mxGeometry>
                </mxCell>
                <mxCell id="79" value="" style="rounded=0;whiteSpace=wrap;html=1;fontSize=26;fillColor=#6666FF;" vertex="1" parent="1">
                    <mxGeometry x="-1" y="890" width="850" height="130" as="geometry"/>
                </mxCell>
                <mxCell id="99" value="Jane Doe" style="html=1;shadow=0;dashed=0;shape=mxgraph.bootstrap.rrect;rSize=5;fillColor=#ffffff;strokeColor=#999999;align=left;spacing=15;fontSize=14;fontColor=#6C767D;" vertex="1" parent="1">
                    <mxGeometry x="208" y="17" width="216" height="40" as="geometry"/>
                </mxCell>
                <mxCell id="100" value="Username" style="html=1;shadow=0;dashed=0;shape=mxgraph.bootstrap.rrect;rSize=5;fillColor=#ffffff;strokeColor=#999999;align=left;spacingLeft=50;fontSize=14;fontColor=#6C767D;" vertex="1" parent="1">
                    <mxGeometry x="459" y="17" width="220" height="40" as="geometry"/>
                </mxCell>
                <mxCell id="103" value="Submit" style="html=1;shadow=0;dashed=0;shape=mxgraph.bootstrap.rrect;rSize=5;fillColor=#0085FC;strokeColor=none;align=center;spacing=15;fontSize=14;fontColor=#ffffff;" vertex="1" parent="1">
                    <mxGeometry x="717" y="23" width="90" height="32" as="geometry"/>
                </mxCell>
            </root>
        </mxGraphModel>
    </diagram>
</mxfile>